# xmcd
#
# Track frame offsets:
#	150
#	23482
#	46006
#	67558
#	85901
#	103462
#	122115
#	149427
#	173202
#	191478
#	216137
#	234830
#	257936
#	278632
#
# Disc length: 3944 seconds
#
# Revision: 1
# Processed by: cddbd v1.5.2PL0 Copyright (c) Steve Scherf et al.
# Submitted via: audiograbber 1.83.01
#
DISCID=bc0f660e
DTITLE=Mick Simpson - Hard Road
DYEAR=2010
DGENRE=Blues
TTITLE0=Green Light
TTITLE1=Somewhere Down The Line
TTITLE2=Only Road
TTITLE3=A Father's Son
TTITLE4=Looking Through My Eyes
TTITLE5=Badlands
TTITLE6=Cant You Hear The Wind Howl
TTITLE7=Love Me Tonight
TTITLE8=Sometimes I Get So Lonely
TTITLE9=Without You
TTITLE10=Someday
TTITLE11=Cant Let You Go
TTITLE12=Hard Road
TTITLE13=Walking Back To India
EXTD=
EXTT0=
EXTT1=
EXTT2=
EXTT3=
EXTT4=
EXTT5=
EXTT6=
EXTT7=
EXTT8=
EXTT9=
EXTT10=
EXTT11=
EXTT12=
EXTT13=
PLAYORDER=
